<?xml version="1.0" standalone="no"?>
<!DOCTYPE svg PUBLIC "-//W3C//DTD SVG 20010904//EN"
 "http://www.w3.org/TR/2001/REC-SVG-20010904/DTD/svg10.dtd">
<svg version="1.0" xmlns="http://www.w3.org/2000/svg"
 width="200.000000pt" height="200.000000pt" viewBox="0 0 200.000000 200.000000"
 preserveAspectRatio="xMidYMid meet">
<metadata>
Created by potrace 1.14, written by Peter Selinger 2001-2017
</metadata>
<g transform="translate(0.000000,200.000000) scale(0.100000,-0.100000)"
fill="#000000" stroke="none">
<path d="M872 1498 c-6 -6 -12 -22 -12 -35 0 -15 -9 -27 -25 -35 -13 -6 -22
-15 -19 -20 3 -4 -12 -23 -33 -41 -78 -66 -131 -128 -154 -182 -13 -30 -31
-57 -39 -60 -40 -13 -56 -86 -28 -122 6 -7 10 -43 10 -80 0 -151 65 -285 158
-323 l26 -11 2 -142 c2 -140 5 -191 13 -214 2 -6 2 -11 -1 -11 -15 2 -91 -45
-104 -64 -21 -30 -30 -80 -22 -123 l7 -35 404 0 405 0 -36 55 -35 55 33 -13
c23 -9 39 -26 53 -54 20 -42 20 -42 77 -43 l56 0 -5 33 c-12 77 -59 144 -118
168 -39 15 -112 20 -142 8 -13 -5 -23 -5 -23 0 0 30 -121 125 -177 140 -30 8
-28 -1 -33 149 -3 83 7 101 76 134 56 26 157 119 178 162 24 51 31 106 31 241
-1 227 -70 357 -210 397 -59 16 -143 23 -199 15 -12 -1 -25 9 -36 28 -18 33
-57 44 -78 23z m-80 -1387 c-8 -4 -13 -12 -13 -17 1 -5 -4 -24 -10 -43 -8 -25
-14 -30 -20 -20 -13 20 -11 63 3 77 7 7 21 12 33 12 15 0 16 -3 7 -9z"/>
</g>
</svg>
